M48
;Layer_Color=6321
;FILE_FORMAT=4:4
METRIC,LZ
;TYPE=PLATED
T1F00S00C0.3000
T2F00S00C0.6500
T3F00S00C1.0000
T4F00S00C1.0160
%
T01
X003735Y003039
X00381
X003715Y003409
X00374Y003634
X003965Y003859
X004415Y003729
X00450747Y0037971
X004765Y003719
X00534Y003659
X005515Y003754
Y003909
X00544Y003484
X00503412Y0032948
X00426Y003279
X005575Y002964
X00534Y004079
X00494Y00399549
X004545Y004124
X0044805Y0042495
X00476Y004359
X00424Y004409
X005005Y004754
X005075Y00530899
X003805Y004729
T02
X005465Y004659
Y004909
Y005159
X003565Y005159
Y004909
Y004659
T03
X004134Y002984
X004388
X004642
X004896
T04
X004261Y005054
Y005308
X004515Y005308
Y005054
X004769Y005054
Y005308
M30
