G04*
G04 #@! TF.GenerationSoftware,Altium Limited,CircuitStudio,1.5.2 (1.5.2.30)*
G04*
G04 Layer_Physical_Order=1*
G04 Layer_Color=11767835*
%FSLAX44Y44*%
%MOMM*%
G71*
G01*
G75*
%ADD10C,0.2540*%
%ADD11C,0.5000*%
%ADD12C,1.7780*%
%ADD13R,1.7780X1.7780*%
%ADD14C,1.3000*%
%ADD15R,1.5240X1.5240*%
%ADD16C,1.5240*%
%ADD17C,0.6000*%
G36*
X574000Y268400D02*
X329000D01*
Y543400D01*
X414428D01*
X414670Y542230D01*
X414670Y542130D01*
Y519370D01*
X437530D01*
Y542130D01*
X437530Y542230D01*
X437772Y543400D01*
X449905D01*
X449989Y542130D01*
X448516Y541936D01*
X445736Y540784D01*
X443348Y538952D01*
X441516Y536564D01*
X440364Y533784D01*
X439971Y530800D01*
X440364Y527816D01*
X441516Y525036D01*
X443348Y522648D01*
X445736Y520816D01*
X448516Y519664D01*
X451500Y519272D01*
X454484Y519664D01*
X457264Y520816D01*
X459652Y522648D01*
X461484Y525036D01*
X462636Y527816D01*
X463028Y530800D01*
X462636Y533784D01*
X461484Y536564D01*
X459652Y538952D01*
X457264Y540784D01*
X454484Y541936D01*
X453011Y542130D01*
X453095Y543400D01*
X475305D01*
X475388Y542130D01*
X473916Y541936D01*
X471136Y540784D01*
X468748Y538952D01*
X466916Y536564D01*
X465764Y533784D01*
X465371Y530800D01*
X465764Y527816D01*
X466916Y525036D01*
X468748Y522648D01*
X471136Y520816D01*
X473916Y519664D01*
X476900Y519272D01*
X479884Y519664D01*
X482664Y520816D01*
X485052Y522648D01*
X486884Y525036D01*
X488036Y527816D01*
X488429Y530800D01*
X488036Y533784D01*
X486884Y536564D01*
X485052Y538952D01*
X482664Y540784D01*
X479884Y541936D01*
X478412Y542130D01*
X478495Y543400D01*
X574000D01*
Y268400D01*
D02*
G37*
%LPC*%
G36*
X504682Y334875D02*
Y330750D01*
X508808D01*
X508630Y331641D01*
X507406Y333474D01*
X505573Y334698D01*
X504682Y334875D01*
D02*
G37*
G36*
X370230Y339630D02*
X366104D01*
X366281Y338738D01*
X367506Y336906D01*
X369338Y335681D01*
X370230Y335504D01*
Y339630D01*
D02*
G37*
G36*
X502142Y334875D02*
X501250Y334698D01*
X499418Y333474D01*
X498193Y331641D01*
X498016Y330750D01*
X502142D01*
Y334875D01*
D02*
G37*
G36*
Y328210D02*
X498016D01*
X498193Y327318D01*
X499418Y325485D01*
X501250Y324261D01*
X502142Y324084D01*
Y328210D01*
D02*
G37*
G36*
X508808D02*
X504682D01*
Y324084D01*
X505573Y324261D01*
X507406Y325485D01*
X508630Y327318D01*
X508808Y328210D01*
D02*
G37*
G36*
X376896Y339630D02*
X372770D01*
Y335504D01*
X373661Y335681D01*
X375494Y336906D01*
X376718Y338738D01*
X376896Y339630D01*
D02*
G37*
G36*
X379396Y362130D02*
X375270D01*
Y358004D01*
X376161Y358181D01*
X377994Y359406D01*
X379218Y361238D01*
X379396Y362130D01*
D02*
G37*
G36*
X372730Y368796D02*
X371838Y368618D01*
X370005Y367394D01*
X368781Y365561D01*
X368604Y364670D01*
X372730D01*
Y368796D01*
D02*
G37*
G36*
Y362130D02*
X368604D01*
X368781Y361238D01*
X370005Y359406D01*
X371838Y358181D01*
X372730Y358004D01*
Y362130D01*
D02*
G37*
G36*
X370230Y346296D02*
X369338Y346118D01*
X367506Y344894D01*
X366281Y343061D01*
X366104Y342170D01*
X370230D01*
Y346296D01*
D02*
G37*
G36*
X372770D02*
Y342170D01*
X376896D01*
X376718Y343061D01*
X375494Y344894D01*
X373661Y346118D01*
X372770Y346296D01*
D02*
G37*
G36*
X448880Y297130D02*
X440070D01*
Y288319D01*
X441452Y288501D01*
X443924Y289525D01*
X446046Y291154D01*
X447675Y293276D01*
X448698Y295748D01*
X448880Y297130D01*
D02*
G37*
G36*
X556230Y295130D02*
X552104D01*
X552282Y294238D01*
X553506Y292405D01*
X555339Y291181D01*
X556230Y291004D01*
Y295130D01*
D02*
G37*
G36*
X437530Y297130D02*
X428719D01*
X428901Y295748D01*
X429925Y293276D01*
X431554Y291154D01*
X433676Y289525D01*
X436148Y288501D01*
X437530Y288319D01*
Y297130D01*
D02*
G37*
G36*
X413400Y308648D02*
X410748Y308298D01*
X408276Y307275D01*
X406154Y305646D01*
X404525Y303524D01*
X403501Y301052D01*
X403152Y298400D01*
X403501Y295748D01*
X404525Y293276D01*
X406154Y291154D01*
X408276Y289525D01*
X410748Y288501D01*
X413400Y288152D01*
X416052Y288501D01*
X418524Y289525D01*
X420646Y291154D01*
X422275Y293276D01*
X423298Y295748D01*
X423648Y298400D01*
X423298Y301052D01*
X422275Y303524D01*
X420646Y305646D01*
X418524Y307275D01*
X416052Y308298D01*
X413400Y308648D01*
D02*
G37*
G36*
X499760Y308560D02*
X479440D01*
Y288240D01*
X499760D01*
Y308560D01*
D02*
G37*
G36*
X562896Y295130D02*
X558770D01*
Y291004D01*
X559662Y291181D01*
X561494Y292405D01*
X562719Y294238D01*
X562896Y295130D01*
D02*
G37*
G36*
X440070Y308480D02*
Y299670D01*
X448880D01*
X448698Y301052D01*
X447675Y303524D01*
X446046Y305646D01*
X443924Y307275D01*
X441452Y308298D01*
X440070Y308480D01*
D02*
G37*
G36*
X381000Y309548D02*
X378839Y309118D01*
X378719Y309038D01*
X375781D01*
X375662Y309118D01*
X373500Y309548D01*
X371339Y309118D01*
X369506Y307894D01*
X368282Y306061D01*
X367852Y303900D01*
X368282Y301738D01*
X368361Y301618D01*
Y290400D01*
X368753Y288433D01*
X369866Y286766D01*
X378867Y277766D01*
X380534Y276652D01*
X382500Y276261D01*
X459500D01*
X461467Y276652D01*
X463134Y277766D01*
X467834Y282466D01*
X468947Y284133D01*
X469339Y286099D01*
Y289537D01*
X471446Y291154D01*
X473075Y293276D01*
X474098Y295748D01*
X474448Y298400D01*
X474098Y301052D01*
X473075Y303524D01*
X471446Y305646D01*
X469324Y307275D01*
X466852Y308298D01*
X464200Y308648D01*
X461548Y308298D01*
X459076Y307275D01*
X456954Y305646D01*
X455325Y303524D01*
X454301Y301052D01*
X453952Y298400D01*
X454301Y295748D01*
X455325Y293276D01*
X456954Y291154D01*
X459061Y289537D01*
Y288228D01*
X457372Y286538D01*
X384629D01*
X378639Y292528D01*
Y297426D01*
X379909Y298468D01*
X381000Y298251D01*
X383162Y298681D01*
X384994Y299905D01*
X386219Y301738D01*
X386649Y303900D01*
X386219Y306061D01*
X384994Y307894D01*
X383162Y309118D01*
X381000Y309548D01*
D02*
G37*
G36*
X437530Y308480D02*
X436148Y308298D01*
X433676Y307275D01*
X431554Y305646D01*
X429925Y303524D01*
X428901Y301052D01*
X428719Y299670D01*
X437530D01*
Y308480D01*
D02*
G37*
G36*
X556230Y301796D02*
X555339Y301618D01*
X553506Y300394D01*
X552282Y298561D01*
X552104Y297670D01*
X556230D01*
Y301796D01*
D02*
G37*
G36*
X558770D02*
Y297670D01*
X562896D01*
X562719Y298561D01*
X561494Y300394D01*
X559662Y301618D01*
X558770Y301796D01*
D02*
G37*
G36*
X375270Y368796D02*
Y364670D01*
X379396D01*
X379218Y365561D01*
X377994Y367394D01*
X376161Y368618D01*
X375270Y368796D01*
D02*
G37*
G36*
X356500Y500018D02*
X354140Y499707D01*
X351941Y498796D01*
X350052Y497347D01*
X348603Y495459D01*
X347692Y493260D01*
X347382Y490900D01*
X347692Y488540D01*
X348603Y486341D01*
X350052Y484453D01*
X351941Y483004D01*
X354140Y482093D01*
X356500Y481782D01*
X358860Y482093D01*
X361059Y483004D01*
X362947Y484453D01*
X364396Y486341D01*
X365307Y488540D01*
X365618Y490900D01*
X365307Y493260D01*
X364396Y495459D01*
X362947Y497347D01*
X361059Y498796D01*
X358860Y499707D01*
X356500Y500018D01*
D02*
G37*
G36*
X451500Y516929D02*
X448516Y516536D01*
X445736Y515384D01*
X443348Y513552D01*
X441516Y511164D01*
X440364Y508384D01*
X439971Y505400D01*
X440364Y502416D01*
X441516Y499636D01*
X443348Y497248D01*
X445736Y495416D01*
X448516Y494264D01*
X451500Y493871D01*
X454484Y494264D01*
X457264Y495416D01*
X459652Y497248D01*
X461484Y499636D01*
X462636Y502416D01*
X463028Y505400D01*
X462636Y508384D01*
X461484Y511164D01*
X459652Y513552D01*
X457264Y515384D01*
X454484Y516536D01*
X451500Y516929D01*
D02*
G37*
G36*
X380500Y478548D02*
X378339Y478118D01*
X376506Y476894D01*
X375282Y475061D01*
X374852Y472900D01*
X374877Y472771D01*
X371891Y469785D01*
X364675D01*
X364396Y470459D01*
X362947Y472347D01*
X361059Y473796D01*
X358860Y474707D01*
X356500Y475018D01*
X354140Y474707D01*
X351941Y473796D01*
X350052Y472347D01*
X348603Y470459D01*
X347692Y468260D01*
X347382Y465900D01*
X347692Y463540D01*
X348603Y461341D01*
X350052Y459453D01*
X351941Y458004D01*
X354140Y457093D01*
X356500Y456782D01*
X358860Y457093D01*
X361059Y458004D01*
X362947Y459453D01*
X364396Y461341D01*
X364675Y462015D01*
X373500D01*
X374987Y462311D01*
X376247Y463153D01*
X380371Y467277D01*
X380500Y467251D01*
X382662Y467681D01*
X384494Y468905D01*
X385719Y470738D01*
X386149Y472900D01*
X385719Y475061D01*
X384494Y476894D01*
X382662Y478118D01*
X380500Y478548D01*
D02*
G37*
G36*
X422730Y446296D02*
X421838Y446118D01*
X420006Y444894D01*
X418781Y443061D01*
X418604Y442170D01*
X422730D01*
Y446296D01*
D02*
G37*
G36*
X425270D02*
Y442170D01*
X429396D01*
X429218Y443061D01*
X427994Y444894D01*
X426161Y446118D01*
X425270Y446296D01*
D02*
G37*
G36*
X437530Y516830D02*
X414670D01*
Y493970D01*
X437530D01*
Y516830D01*
D02*
G37*
G36*
X357770Y524851D02*
Y517170D01*
X365451D01*
X365307Y518260D01*
X364396Y520459D01*
X362947Y522347D01*
X361059Y523796D01*
X358860Y524707D01*
X357770Y524851D01*
D02*
G37*
G36*
X507500Y536548D02*
X505339Y536118D01*
X503506Y534893D01*
X502282Y533061D01*
X502062Y531955D01*
X487753Y517646D01*
X486911Y516386D01*
X486615Y514900D01*
Y513490D01*
X485413Y513082D01*
X485052Y513552D01*
X482664Y515384D01*
X479884Y516536D01*
X476900Y516929D01*
X473916Y516536D01*
X471136Y515384D01*
X468748Y513552D01*
X466916Y511164D01*
X465764Y508384D01*
X465371Y505400D01*
X465764Y502416D01*
X466916Y499636D01*
X468748Y497248D01*
X471136Y495416D01*
X473916Y494264D01*
X476900Y493871D01*
X479884Y494264D01*
X482664Y495416D01*
X485052Y497248D01*
X485413Y497719D01*
X486615Y497310D01*
Y452009D01*
X476129Y441522D01*
X476000Y441548D01*
X473839Y441118D01*
X472006Y439894D01*
X470782Y438061D01*
X470352Y435900D01*
X470782Y433738D01*
X472006Y431906D01*
X473839Y430681D01*
X476000Y430251D01*
X478162Y430681D01*
X479994Y431906D01*
X481219Y433738D01*
X481649Y435900D01*
X481623Y436029D01*
X493247Y447653D01*
X494089Y448913D01*
X494138Y449160D01*
X494385Y450400D01*
Y472294D01*
X495655Y472679D01*
X496506Y471405D01*
X496615Y471332D01*
Y407659D01*
X494129Y405172D01*
X494000Y405198D01*
X491839Y404768D01*
X490006Y403544D01*
X488782Y401711D01*
X488352Y399549D01*
X488671Y397944D01*
X487847Y396674D01*
X460219D01*
X458385Y398509D01*
Y408332D01*
X458494Y408405D01*
X459719Y410238D01*
X460149Y412400D01*
X459719Y414561D01*
X458494Y416394D01*
X456662Y417618D01*
X454500Y418048D01*
X452338Y417618D01*
X450506Y416394D01*
X449282Y414561D01*
X448852Y412400D01*
X449282Y410238D01*
X450506Y408405D01*
X450616Y408332D01*
Y396900D01*
X450911Y395413D01*
X451753Y394153D01*
X453138Y392768D01*
X452652Y391594D01*
X398310D01*
X397289Y391391D01*
X396500Y391548D01*
X394338Y391118D01*
X392506Y389894D01*
X391281Y388061D01*
X390851Y385900D01*
X391281Y383738D01*
X392506Y381906D01*
X394338Y380681D01*
X396500Y380251D01*
X398661Y380681D01*
X400494Y381906D01*
X401718Y383738D01*
X401736Y383825D01*
X445306D01*
X445985Y382555D01*
X445528Y381871D01*
X445098Y379710D01*
X445333Y378529D01*
X444190Y377765D01*
X443662Y378118D01*
X442770Y378296D01*
Y374170D01*
X447047D01*
X448057Y374844D01*
X448585Y374491D01*
X450747Y374061D01*
X452908Y374491D01*
X454741Y375715D01*
X454814Y375825D01*
X471113D01*
X471711Y374705D01*
X471281Y374061D01*
X470851Y371900D01*
X470877Y371771D01*
X431202Y332096D01*
X429994Y331894D01*
X428162Y333118D01*
X426000Y333548D01*
X423839Y333118D01*
X422006Y331894D01*
X420782Y330061D01*
X420352Y327900D01*
X420782Y325738D01*
X422006Y323906D01*
X423839Y322681D01*
X426000Y322251D01*
X428162Y322681D01*
X429994Y323906D01*
X430067Y324015D01*
X432500D01*
X433986Y324311D01*
X435247Y325153D01*
X476371Y366277D01*
X476500Y366251D01*
X478661Y366681D01*
X480494Y367906D01*
X481718Y369738D01*
X482148Y371900D01*
X481718Y374061D01*
X481288Y374705D01*
X481887Y375825D01*
X518581D01*
X528377Y366029D01*
X528351Y365900D01*
X528781Y363738D01*
X530006Y361906D01*
X531838Y360681D01*
X534000Y360251D01*
X536161Y360681D01*
X537994Y361906D01*
X538845Y363180D01*
X540115Y362794D01*
Y352467D01*
X540006Y352394D01*
X538781Y350561D01*
X538351Y348400D01*
X538781Y346238D01*
X540006Y344406D01*
X541838Y343181D01*
X544000Y342751D01*
X546161Y343181D01*
X547994Y344406D01*
X549218Y346238D01*
X549648Y348400D01*
X549218Y350561D01*
X547994Y352394D01*
X547884Y352467D01*
Y369805D01*
X549004Y370404D01*
X549338Y370181D01*
X551500Y369751D01*
X553661Y370181D01*
X555494Y371406D01*
X556718Y373238D01*
X557148Y375400D01*
X557123Y375529D01*
X562747Y381153D01*
X563589Y382413D01*
X563638Y382660D01*
X563884Y383900D01*
Y502400D01*
X563589Y503887D01*
X562747Y505147D01*
X555028Y512866D01*
X555307Y513540D01*
X555618Y515900D01*
X555307Y518260D01*
X554396Y520459D01*
X552947Y522347D01*
X551059Y523797D01*
X548860Y524707D01*
X546500Y525018D01*
X544140Y524707D01*
X541941Y523797D01*
X540053Y522347D01*
X538604Y520459D01*
X537693Y518260D01*
X537382Y515900D01*
X537693Y513540D01*
X538604Y511341D01*
X540053Y509453D01*
X541941Y508004D01*
X544140Y507093D01*
X546500Y506782D01*
X548860Y507093D01*
X549534Y507372D01*
X556115Y500791D01*
Y494629D01*
X554845Y494376D01*
X554396Y495459D01*
X552947Y497347D01*
X551059Y498797D01*
X548860Y499707D01*
X546500Y500018D01*
X544140Y499707D01*
X541941Y498797D01*
X540053Y497347D01*
X538604Y495459D01*
X537693Y493260D01*
X537382Y490900D01*
X537693Y488540D01*
X538604Y486341D01*
X540053Y484453D01*
X541941Y483004D01*
X544140Y482093D01*
X546500Y481782D01*
X548860Y482093D01*
X551059Y483004D01*
X552947Y484453D01*
X554396Y486341D01*
X554845Y487424D01*
X556115Y487172D01*
Y469629D01*
X554845Y469376D01*
X554396Y470459D01*
X552947Y472347D01*
X551059Y473797D01*
X548860Y474707D01*
X546500Y475018D01*
X544140Y474707D01*
X541941Y473797D01*
X540053Y472347D01*
X538604Y470459D01*
X537693Y468260D01*
X537382Y465900D01*
X537693Y463540D01*
X538604Y461341D01*
X540053Y459453D01*
X541941Y458004D01*
X544140Y457093D01*
X546500Y456782D01*
X548860Y457093D01*
X551059Y458004D01*
X552947Y459453D01*
X554396Y461341D01*
X554845Y462424D01*
X556115Y462172D01*
Y396006D01*
X554845Y395327D01*
X553661Y396118D01*
X552770Y396296D01*
Y390900D01*
Y385504D01*
X553661Y385681D01*
X553916Y385851D01*
X555290Y385242D01*
X555362Y384756D01*
X551629Y381023D01*
X551500Y381048D01*
X549338Y380618D01*
X547506Y379394D01*
X546620Y378069D01*
X545126Y377767D01*
X532437Y390457D01*
X532083Y390693D01*
X531922Y392328D01*
X536747Y397153D01*
X537589Y398413D01*
X537638Y398660D01*
X537885Y399900D01*
Y403832D01*
X537994Y403905D01*
X539219Y405738D01*
X539649Y407900D01*
X539219Y410061D01*
X537994Y411894D01*
X536162Y413118D01*
X534000Y413548D01*
X531839Y413118D01*
X530006Y411894D01*
X528782Y410061D01*
X528352Y407900D01*
X528782Y405738D01*
X530006Y403905D01*
X530116Y403832D01*
Y401509D01*
X525281Y396674D01*
X500153D01*
X499329Y397944D01*
X499649Y399549D01*
X499623Y399679D01*
X503247Y403303D01*
X504089Y404563D01*
X504385Y406049D01*
Y471332D01*
X504494Y471405D01*
X505719Y473238D01*
X506149Y475400D01*
X505719Y477561D01*
X504494Y479394D01*
X502662Y480618D01*
X500500Y481048D01*
X498339Y480618D01*
X496506Y479394D01*
X495655Y478120D01*
X494385Y478505D01*
Y513291D01*
X506536Y525442D01*
X507500Y525251D01*
X509662Y525681D01*
X511494Y526905D01*
X512719Y528737D01*
X513149Y530899D01*
X512719Y533061D01*
X511494Y534893D01*
X509662Y536118D01*
X507500Y536548D01*
D02*
G37*
G36*
X355230Y524851D02*
X354140Y524707D01*
X351941Y523796D01*
X350052Y522347D01*
X348603Y520459D01*
X347692Y518260D01*
X347549Y517170D01*
X355230D01*
Y524851D01*
D02*
G37*
G36*
Y514630D02*
X347549D01*
X347692Y513540D01*
X348603Y511341D01*
X350052Y509453D01*
X351941Y508004D01*
X354140Y507093D01*
X355230Y506949D01*
Y514630D01*
D02*
G37*
G36*
X365451D02*
X357770D01*
Y506949D01*
X358860Y507093D01*
X361059Y508004D01*
X362947Y509453D01*
X364396Y511341D01*
X365307Y513540D01*
X365451Y514630D01*
D02*
G37*
G36*
X550230Y389630D02*
X546104D01*
X546281Y388738D01*
X547506Y386906D01*
X549338Y385681D01*
X550230Y385504D01*
Y389630D01*
D02*
G37*
G36*
Y396296D02*
X549338Y396118D01*
X547506Y394894D01*
X546281Y393061D01*
X546104Y392170D01*
X550230D01*
Y396296D01*
D02*
G37*
G36*
X440230Y378296D02*
X439338Y378118D01*
X437506Y376894D01*
X436282Y375061D01*
X436104Y374170D01*
X440230D01*
Y378296D01*
D02*
G37*
G36*
Y371630D02*
X436104D01*
X436282Y370738D01*
X437506Y368905D01*
X439338Y367681D01*
X440230Y367504D01*
Y371630D01*
D02*
G37*
G36*
X446896D02*
X442770D01*
Y367504D01*
X443662Y367681D01*
X445494Y368905D01*
X446719Y370738D01*
X446896Y371630D01*
D02*
G37*
G36*
X446780Y423680D02*
X442654D01*
X442831Y422788D01*
X444056Y420956D01*
X445888Y419731D01*
X446780Y419554D01*
Y423680D01*
D02*
G37*
G36*
X422730Y439630D02*
X418604D01*
X418781Y438738D01*
X420006Y436906D01*
X421838Y435681D01*
X422730Y435504D01*
Y439630D01*
D02*
G37*
G36*
X429396D02*
X425270D01*
Y435504D01*
X426161Y435681D01*
X427994Y436906D01*
X429218Y438738D01*
X429396Y439630D01*
D02*
G37*
G36*
X449320Y430346D02*
Y426220D01*
X453446D01*
X453269Y427112D01*
X452044Y428944D01*
X450211Y430168D01*
X449320Y430346D01*
D02*
G37*
G36*
X453446Y423680D02*
X449320D01*
Y419554D01*
X450211Y419731D01*
X452044Y420956D01*
X453269Y422788D01*
X453446Y423680D01*
D02*
G37*
G36*
X446780Y430346D02*
X445888Y430168D01*
X444056Y428944D01*
X442831Y427112D01*
X442654Y426220D01*
X446780D01*
Y430346D01*
D02*
G37*
%LPD*%
D10*
X544000Y348400D02*
Y373400D01*
X529690Y387710D02*
X544000Y373400D01*
X551500Y375400D02*
X560000Y383900D01*
Y502400D01*
X476000Y435900D02*
X490500Y450400D01*
X546500Y515900D02*
X560000Y502400D01*
X490500Y450400D02*
Y514900D01*
X373500Y465900D02*
X380500Y472900D01*
X356500Y465900D02*
X373500D01*
X489025Y387710D02*
X489075Y387659D01*
X498925D02*
X498975Y387710D01*
X529690D01*
X491179Y392739D02*
X496821D01*
X491129Y392790D02*
X491179Y392739D01*
X489075Y387659D02*
X498925D01*
X496821Y392739D02*
X496871Y392790D01*
X454500Y396900D02*
Y412400D01*
Y396900D02*
X458610Y392790D01*
X491129D01*
X496871D02*
X526890D01*
X398310Y387710D02*
X489025D01*
X450747Y379710D02*
X520190D01*
X534000Y365900D01*
X534000Y399900D02*
Y407900D01*
X526890Y392790D02*
X534000Y399900D01*
X426000Y327900D02*
X432500D01*
X476500Y371900D01*
X500500Y406049D02*
Y475400D01*
X494000Y399549D02*
X500500Y406049D01*
X490500Y514900D02*
X507000Y531400D01*
X507500Y530899D02*
Y530900D01*
X507000Y531400D02*
X507500Y530900D01*
X396500Y385900D02*
X398310Y387710D01*
X326500Y265900D02*
X576500D01*
Y545900D01*
X326500D02*
X576500D01*
X326500Y265900D02*
Y545900D01*
D11*
X373500Y290400D02*
Y303900D01*
Y290400D02*
X382500Y281400D01*
X459500D01*
X464200Y286099D01*
Y298400D01*
X373500Y303900D02*
X381000D01*
D12*
X476900Y505400D02*
D03*
X451500Y505400D02*
D03*
Y530800D02*
D03*
X476900Y530800D02*
D03*
D13*
X426100Y505400D02*
D03*
Y530800D02*
D03*
D14*
X356500Y515900D02*
D03*
Y490900D02*
D03*
Y465900D02*
D03*
X546500Y465900D02*
D03*
Y490900D02*
D03*
Y515900D02*
D03*
D15*
X489600Y298400D02*
D03*
D16*
X464200D02*
D03*
X438800D02*
D03*
X413400D02*
D03*
D17*
X544000Y348400D02*
D03*
X476500Y371900D02*
D03*
X534000Y365900D02*
D03*
X551500Y390900D02*
D03*
X448050Y424950D02*
D03*
X424000Y440900D02*
D03*
X371500Y340900D02*
D03*
X374000Y363400D02*
D03*
X551500Y375400D02*
D03*
X476000Y435900D02*
D03*
X500500Y475400D02*
D03*
X494000Y399549D02*
D03*
X557500Y296400D02*
D03*
X380500Y472900D02*
D03*
X454500Y412400D02*
D03*
X373500Y303900D02*
D03*
X381000D02*
D03*
X441500Y372900D02*
D03*
X450747Y379710D02*
D03*
X534000Y407900D02*
D03*
X426000Y327900D02*
D03*
X507500Y530899D02*
D03*
X503412Y329480D02*
D03*
X396500Y385900D02*
D03*
M02*
