G04*
G04 #@! TF.GenerationSoftware,Altium Limited,CircuitStudio,1.5.2 (1.5.2.30)*
G04*
G04 Layer_Color=16770453*
%FSLAX44Y44*%
%MOMM*%
G71*
G01*
G75*
%ADD10C,0.2540*%
%ADD18R,1.5240X1.0000*%
%ADD19R,0.2500X0.2500*%
%ADD20R,0.5400X1.8900*%
%ADD21R,0.7000X1.3000*%
%ADD22R,1.6000X1.3000*%
%ADD23R,1.3000X1.6000*%
%ADD24R,0.8128X0.9144*%
%ADD25R,0.9144X0.8128*%
%ADD26R,1.3000X0.7000*%
%ADD27O,2.2000X0.6000*%
%ADD28R,0.9140X1.7020*%
G04:AMPARAMS|DCode=29|XSize=1.2mm|YSize=1.2mm|CornerRadius=0.3mm|HoleSize=0mm|Usage=FLASHONLY|Rotation=180.000|XOffset=0mm|YOffset=0mm|HoleType=Round|Shape=RoundedRectangle|*
%AMROUNDEDRECTD29*
21,1,1.2000,0.6000,0,0,180.0*
21,1,0.6000,1.2000,0,0,180.0*
1,1,0.6000,-0.3000,0.3000*
1,1,0.6000,0.3000,0.3000*
1,1,0.6000,0.3000,-0.3000*
1,1,0.6000,-0.3000,-0.3000*
%
%ADD29ROUNDEDRECTD29*%
%ADD30R,1.0000X1.5240*%
%ADD31R,0.9100X1.2200*%
G36*
X364500Y336400D02*
X359250Y331150D01*
X359250Y315900D01*
X353750D01*
X353750Y331150D01*
X348500Y336400D01*
X348500Y364400D01*
X364500D01*
X364500Y336400D01*
D02*
G37*
D10*
X326500Y265900D02*
X576500D01*
Y545900D01*
X326500D02*
X576500D01*
X326500Y265900D02*
Y545900D01*
D18*
X424320Y473594D02*
D03*
Y453274D02*
D03*
D19*
X356500Y356400D02*
D03*
D20*
X341500Y325400D02*
D03*
X371500D02*
D03*
D21*
X563000Y408400D02*
D03*
X544000D02*
D03*
X404000Y428900D02*
D03*
X385000D02*
D03*
X563000Y428900D02*
D03*
X544000D02*
D03*
X505000Y386900D02*
D03*
X524000D02*
D03*
X345000Y428900D02*
D03*
X364000D02*
D03*
X561000Y365900D02*
D03*
X542000D02*
D03*
X505000D02*
D03*
X524000D02*
D03*
X497710Y504457D02*
D03*
X516710D02*
D03*
X385000Y406900D02*
D03*
X404000D02*
D03*
X385000Y385900D02*
D03*
X404000D02*
D03*
Y365900D02*
D03*
X385000D02*
D03*
X497710Y524707D02*
D03*
X516710D02*
D03*
X524000Y407900D02*
D03*
X505000D02*
D03*
X363000Y284400D02*
D03*
X382000D02*
D03*
D22*
X390500Y344400D02*
D03*
Y325400D02*
D03*
X451460Y472900D02*
D03*
Y453900D02*
D03*
X397840Y472900D02*
D03*
Y453900D02*
D03*
X478440Y472900D02*
D03*
Y453900D02*
D03*
D23*
X345750Y404900D02*
D03*
X364750D02*
D03*
X345750Y379650D02*
D03*
X364750D02*
D03*
X482000Y357900D02*
D03*
X463000D02*
D03*
D24*
X516786Y464562D02*
D03*
X497634D02*
D03*
X507286Y485738D02*
D03*
X515576Y426312D02*
D03*
X496424D02*
D03*
X506076Y447488D02*
D03*
X386924Y513988D02*
D03*
X406076D02*
D03*
X396424Y492812D02*
D03*
D25*
X562088Y347976D02*
D03*
Y328824D02*
D03*
X540912Y338476D02*
D03*
X524588Y347976D02*
D03*
Y328824D02*
D03*
X503412Y338476D02*
D03*
D26*
X464500Y319400D02*
D03*
Y338400D02*
D03*
X484500Y319400D02*
D03*
Y338400D02*
D03*
X516500Y313400D02*
D03*
Y294400D02*
D03*
D27*
X427500Y386850D02*
D03*
Y399550D02*
D03*
Y412250D02*
D03*
Y424950D02*
D03*
X475500Y386850D02*
D03*
Y399550D02*
D03*
Y412250D02*
D03*
Y424950D02*
D03*
D28*
X413280Y327900D02*
D03*
X443720D02*
D03*
D29*
X536000Y309900D02*
D03*
X557000D02*
D03*
D30*
X421340Y357900D02*
D03*
X441660D02*
D03*
D31*
X357150Y303900D02*
D03*
X389850D02*
D03*
M02*
