G04*
G04 #@! TF.GenerationSoftware,Altium Limited,CircuitStudio,1.5.2 (1.5.2.30)*
G04*
G04 Layer_Color=128*
%FSLAX44Y44*%
%MOMM*%
G71*
G01*
G75*
%ADD10C,0.2540*%
%ADD63C,0.1270*%
D10*
X326500Y265900D02*
X576500D01*
Y545900D01*
X326500D02*
X576500D01*
X326500Y265900D02*
Y545900D01*
D63*
X471820Y505400D02*
X481980D01*
X476900Y500320D02*
Y510480D01*
X421020Y505400D02*
X431180D01*
X426100Y500320D02*
Y510480D01*
X446420Y505400D02*
X456580D01*
X451500Y500320D02*
Y510480D01*
X446420Y530800D02*
X456580D01*
X451500Y525720D02*
Y535880D01*
X421020Y530800D02*
X431180D01*
X426100Y525720D02*
Y535880D01*
X471820Y530800D02*
X481980D01*
X476900Y525720D02*
Y535880D01*
X353250Y515900D02*
X359750D01*
X356500Y512650D02*
Y519150D01*
X353250Y490900D02*
X359750D01*
X356500Y487650D02*
Y494150D01*
X353250Y465900D02*
X359750D01*
X356500Y462650D02*
Y469150D01*
X543250Y465900D02*
X549750D01*
X546500Y462650D02*
Y469150D01*
X543250Y490900D02*
X549750D01*
X546500Y487650D02*
Y494150D01*
X543250Y515900D02*
X549750D01*
X546500Y512650D02*
Y519150D01*
X484600Y298400D02*
X494600D01*
X489600Y293400D02*
Y303400D01*
X459200Y298400D02*
X469200D01*
X464200Y293400D02*
Y303400D01*
X433800Y298400D02*
X443800D01*
X438800Y293400D02*
Y303400D01*
X408400Y298400D02*
X418400D01*
X413400Y293400D02*
Y303400D01*
X542500Y348400D02*
X545500D01*
X544000Y346900D02*
Y349900D01*
X475000Y371900D02*
X478000D01*
X476500Y370400D02*
Y373400D01*
X532500Y365900D02*
X535500D01*
X534000Y364400D02*
Y367400D01*
X550000Y390900D02*
X553000D01*
X551500Y389400D02*
Y392400D01*
X446550Y424950D02*
X449550D01*
X448050Y423450D02*
Y426450D01*
X422500Y440900D02*
X425500D01*
X424000Y439400D02*
Y442400D01*
X370000Y340900D02*
X373000D01*
X371500Y339400D02*
Y342400D01*
X372500Y363400D02*
X375500D01*
X374000Y361900D02*
Y364900D01*
X550000Y375400D02*
X553000D01*
X551500Y373900D02*
Y376900D01*
X474500Y435900D02*
X477500D01*
X476000Y434400D02*
Y437400D01*
X499000Y475400D02*
X502000D01*
X500500Y473900D02*
Y476900D01*
X492500Y399549D02*
X495500D01*
X494000Y398050D02*
Y401049D01*
X556000Y296400D02*
X559000D01*
X557500Y294900D02*
Y297900D01*
X379000Y472900D02*
X382000D01*
X380500Y471400D02*
Y474400D01*
X453000Y412400D02*
X456000D01*
X454500Y410900D02*
Y413900D01*
X372000Y303900D02*
X375000D01*
X373500Y302400D02*
Y305400D01*
X379500Y303900D02*
X382500D01*
X381000Y302400D02*
Y305400D01*
X440000Y372900D02*
X443000D01*
X441500Y371400D02*
Y374400D01*
X449247Y379710D02*
X452247D01*
X450747Y378210D02*
Y381210D01*
X532500Y407900D02*
X535500D01*
X534000Y406400D02*
Y409400D01*
X424500Y327900D02*
X427500D01*
X426000Y326400D02*
Y329400D01*
X506000Y530899D02*
X509000D01*
X507500Y529399D02*
Y532399D01*
X501912Y329480D02*
X504912D01*
X503412Y327980D02*
Y330980D01*
X395000Y385900D02*
X398000D01*
X396500Y384400D02*
Y387400D01*
M02*
