G04*
G04 #@! TF.GenerationSoftware,Altium Limited,CircuitStudio,1.5.2 (1.5.2.30)*
G04*
G04 Layer_Color=13948096*
%FSLAX44Y44*%
%MOMM*%
G71*
G01*
G75*
%ADD10C,0.2540*%
%ADD50C,0.2500*%
%ADD51C,0.4000*%
%ADD52C,0.1000*%
%ADD53C,0.2000*%
%ADD54C,0.2032*%
%ADD55C,0.1778*%
D10*
X356500Y474900D02*
Y481900D01*
Y499900D02*
Y506900D01*
X546500Y499900D02*
Y506900D01*
Y474900D02*
Y481900D01*
X326500Y265900D02*
X576500D01*
Y545900D01*
X326500D02*
X576500D01*
X326500Y265900D02*
Y545900D01*
D50*
X428750Y378350D02*
G03*
X428750Y378350I-1250J0D01*
G01*
X345750Y302900D02*
G03*
X345750Y302900I-1250J0D01*
G01*
X568000Y301900D02*
Y317900D01*
Y309900D02*
X573500D01*
D51*
X452500Y388900D02*
G03*
X452500Y388900I-2000J0D01*
G01*
D52*
X562500Y417400D02*
X568500D01*
Y399400D02*
Y417400D01*
X562500Y399400D02*
X568500D01*
X538500Y417400D02*
X544500D01*
X538500Y399400D02*
Y417400D01*
Y399400D02*
X544500D01*
X403500Y437900D02*
X409500D01*
Y419900D02*
Y437900D01*
X403500Y419900D02*
X409500D01*
X379500Y437900D02*
X385500D01*
X379500Y419900D02*
Y437900D01*
Y419900D02*
X385500D01*
X562500Y437900D02*
X568500D01*
Y419900D02*
Y437900D01*
X562500Y419900D02*
X568500D01*
X538500Y437900D02*
X544500D01*
X538500Y419900D02*
Y437900D01*
Y419900D02*
X544500D01*
X499500Y377900D02*
X505500D01*
X499500D02*
Y395900D01*
X505500D01*
X523500Y377900D02*
X529500D01*
Y395900D01*
X523500D02*
X529500D01*
X339500Y419900D02*
X345500D01*
X339500D02*
Y437900D01*
X345500D01*
X363500Y419900D02*
X369500D01*
Y437900D01*
X363500D02*
X369500D01*
X473500Y313900D02*
Y319900D01*
X455500Y313900D02*
X473500D01*
X455500D02*
Y319900D01*
X473500Y337900D02*
Y343900D01*
X455500D02*
X473500D01*
X455500Y337900D02*
Y343900D01*
X560500Y374900D02*
X566500D01*
Y356900D02*
Y374900D01*
X560500Y356900D02*
X566500D01*
X536500Y374900D02*
X542500D01*
X536500Y356900D02*
Y374900D01*
Y356900D02*
X542500D01*
X499500D02*
X505500D01*
X499500D02*
Y374900D01*
X505500D01*
X523500Y356900D02*
X529500D01*
Y374900D01*
X523500D02*
X529500D01*
X493500Y313900D02*
Y319900D01*
X475500Y313900D02*
X493500D01*
X475500D02*
Y319900D01*
X493500Y337900D02*
Y343900D01*
X475500D02*
X493500D01*
X475500Y337900D02*
Y343900D01*
X492210Y495457D02*
X498210D01*
X492210D02*
Y513457D01*
X498210D01*
X516210Y495457D02*
X522210D01*
Y513457D01*
X516210D02*
X522210D01*
X379500Y397900D02*
X385500D01*
X379500D02*
Y415900D01*
X385500D01*
X403500Y397900D02*
X409500D01*
Y415900D01*
X403500D02*
X409500D01*
X507500Y312900D02*
Y318900D01*
X525500D01*
Y312900D02*
Y318900D01*
X507500Y288900D02*
Y294900D01*
Y288900D02*
X525500D01*
Y294900D01*
X379500Y376900D02*
X385500D01*
X379500D02*
Y394900D01*
X385500D01*
X403500Y376900D02*
X409500D01*
Y394900D01*
X403500D02*
X409500D01*
X403500Y374900D02*
X409500D01*
Y356900D02*
Y374900D01*
X403500Y356900D02*
X409500D01*
X379500Y374900D02*
X385500D01*
X379500Y356900D02*
Y374900D01*
Y356900D02*
X385500D01*
X492210Y515707D02*
X498210D01*
X492210D02*
Y533707D01*
X498210D01*
X516210Y515707D02*
X522210D01*
Y533707D01*
X516210D02*
X522210D01*
X523500Y416900D02*
X529500D01*
Y398900D02*
Y416900D01*
X523500Y398900D02*
X529500D01*
X499500Y416900D02*
X505500D01*
X499500Y398900D02*
Y416900D01*
Y398900D02*
X505500D01*
X357500Y275400D02*
X363500D01*
X357500D02*
Y293400D01*
X363500D01*
X381500Y275400D02*
X387500D01*
Y293400D01*
X381500D02*
X387500D01*
D53*
X380340Y352934D02*
X400660D01*
X380340Y316866D02*
X400660D01*
X380340D02*
Y352934D01*
X400660Y316866D02*
Y352934D01*
X337216Y394740D02*
Y415060D01*
X373284Y394740D02*
Y415060D01*
X337216Y394740D02*
X373284D01*
X337216Y415060D02*
X373284D01*
X337216Y369490D02*
Y389810D01*
X373284Y369490D02*
Y389810D01*
X337216Y369490D02*
X373284D01*
X337216Y389810D02*
X373284D01*
X441300Y481434D02*
X461620D01*
X441300Y445366D02*
X461620D01*
X441300D02*
Y481434D01*
X461620Y445366D02*
Y481434D01*
X387680D02*
X408000D01*
X387680Y445366D02*
X408000D01*
X387680D02*
Y481434D01*
X408000Y445366D02*
Y481434D01*
X468280D02*
X488600D01*
X468280Y445366D02*
X488600D01*
X468280D02*
Y481434D01*
X488600Y445366D02*
Y481434D01*
X490534Y347740D02*
Y368060D01*
X454466Y347740D02*
Y368060D01*
X490534D01*
X454466Y347740D02*
X490534D01*
X442500Y380900D02*
Y430900D01*
X460500Y380900D02*
Y430900D01*
X442500Y380900D02*
X460500D01*
X442500Y430900D02*
X460500D01*
X405750Y338900D02*
X451250D01*
Y316650D02*
Y338900D01*
X405750Y316650D02*
X451250D01*
X405750D02*
Y338900D01*
X413500Y347900D02*
Y367900D01*
X449500D01*
Y347900D02*
Y367900D01*
X413500Y347900D02*
X449500D01*
X363500Y295900D02*
Y311900D01*
X381300D02*
X396500D01*
Y295900D02*
Y311900D01*
X381300Y295900D02*
X396500D01*
X350500D02*
Y311900D01*
X365700D01*
X350500Y295900D02*
X365700D01*
X381300D01*
X365700Y311900D02*
X381300D01*
X414160Y481468D02*
X434480D01*
X414160Y445400D02*
X434480D01*
X414160D02*
Y481468D01*
X434480Y445400D02*
Y481468D01*
D54*
X493062Y473562D02*
Y481674D01*
X499158D01*
X521286Y473562D02*
Y481674D01*
X515286D02*
X521286D01*
X544976Y324252D02*
X553088D01*
X544976D02*
Y330348D01*
Y352476D02*
X553088D01*
X544976Y346476D02*
Y352476D01*
X507476Y324252D02*
X515588D01*
X507476D02*
Y330348D01*
Y352476D02*
X515588D01*
X507476Y346476D02*
Y352476D01*
X491852Y435312D02*
Y443424D01*
X497948D01*
X520076Y435312D02*
Y443424D01*
X514076D02*
X520076D01*
X410648Y496876D02*
Y504988D01*
X404552Y496876D02*
X410648D01*
X382424D02*
Y504988D01*
Y496876D02*
X388424D01*
D55*
X400700Y285900D02*
Y311400D01*
X502600D01*
X400700Y285900D02*
X502600D01*
Y311400D01*
M02*
