G04*
G04 #@! TF.GenerationSoftware,Altium Limited,CircuitStudio,1.5.2 (1.5.2.30)*
G04*
G04 Layer_Color=15065295*
%FSLAX44Y44*%
%MOMM*%
G71*
G01*
G75*
%ADD10C,0.2540*%
%ADD11C,0.5000*%
D10*
X498000Y314400D02*
X482765D01*
Y322017D01*
X485304Y324556D01*
X490383D01*
X492922Y322017D01*
Y314400D01*
X482765Y329635D02*
X498000D01*
X492922Y334713D01*
X498000Y339791D01*
X482765D01*
X498000Y344870D02*
X482765D01*
X487843Y349948D01*
X482765Y355027D01*
X498000D01*
X432971Y324556D02*
X430432Y322017D01*
Y316939D01*
X432971Y314400D01*
X443128D01*
X445667Y316939D01*
Y322017D01*
X443128Y324556D01*
X438049D01*
Y319478D01*
X445667Y329635D02*
X430432D01*
X445667Y339791D01*
X430432D01*
Y344870D02*
X445667D01*
Y352487D01*
X443128Y355027D01*
X432971D01*
X430432Y352487D01*
Y344870D01*
X416500Y470900D02*
Y486135D01*
X424117D01*
X426657Y483596D01*
Y478517D01*
X424117Y475978D01*
X416500D01*
X421578D02*
X426657Y470900D01*
X434274Y481057D02*
X439352D01*
X441892Y478517D01*
Y470900D01*
X434274D01*
X431735Y473439D01*
X434274Y475978D01*
X441892D01*
X446970Y470900D02*
Y481057D01*
X454588D01*
X457127Y478517D01*
Y470900D01*
X467283Y465822D02*
X469823D01*
X472362Y468361D01*
Y481057D01*
X464744D01*
X462205Y478517D01*
Y473439D01*
X464744Y470900D01*
X472362D01*
X485058D02*
X479979D01*
X477440Y473439D01*
Y478517D01*
X479979Y481057D01*
X485058D01*
X487597Y478517D01*
Y475978D01*
X477440D01*
X396710Y537943D02*
Y522707D01*
Y530325D01*
X406867D01*
Y537943D01*
Y522707D01*
X496710Y537943D02*
Y522707D01*
X506867D01*
X367000Y435400D02*
Y450395D01*
X374498D01*
X376997Y447896D01*
Y442897D01*
X374498Y440398D01*
X367000D01*
X381995Y450395D02*
Y435400D01*
X386994Y440398D01*
X391992Y435400D01*
Y450395D01*
X396990Y435400D02*
Y450395D01*
X401989Y445396D01*
X406987Y450395D01*
Y435400D01*
X498997Y450395D02*
X489000D01*
Y442897D01*
X493998D01*
X489000D01*
Y435400D01*
X503995Y445396D02*
Y435400D01*
Y440398D01*
X506494Y442897D01*
X508994Y445396D01*
X511493D01*
X526488Y435400D02*
X521490D01*
X518990Y437899D01*
Y442897D01*
X521490Y445396D01*
X526488D01*
X528987Y442897D01*
Y440398D01*
X518990D01*
X543982Y430401D02*
Y445396D01*
X536485D01*
X533986Y442897D01*
Y437899D01*
X536485Y435400D01*
X543982D01*
X456598Y324556D02*
X459138Y319478D01*
X464216Y314400D01*
X469294D01*
X471833Y316939D01*
Y322017D01*
X469294Y324556D01*
X466755D01*
X464216Y322017D01*
Y314400D01*
Y329635D02*
Y339791D01*
X471833Y344870D02*
Y349948D01*
Y347409D01*
X456598D01*
X459138Y344870D01*
X471833Y367722D02*
Y357566D01*
X461677Y367722D01*
X459138D01*
X456598Y365183D01*
Y360105D01*
X459138Y357566D01*
X456598Y372801D02*
X466755D01*
X471833Y377879D01*
X466755Y382957D01*
X456598D01*
X471833Y388036D02*
Y393114D01*
Y390575D01*
X461677D01*
Y388036D01*
X471833Y400732D02*
X461677D01*
Y408349D01*
X464216Y410888D01*
X471833D01*
X406804Y324556D02*
X404265Y322017D01*
Y316939D01*
X406804Y314400D01*
X409343D01*
X411883Y316939D01*
Y322017D01*
X414422Y324556D01*
X416961D01*
X419500Y322017D01*
Y316939D01*
X416961Y314400D01*
X404265Y329635D02*
X419500D01*
Y337252D01*
X416961Y339791D01*
X406804D01*
X404265Y337252D01*
Y329635D01*
X348000Y273400D02*
X332765D01*
X337843Y278478D01*
X332765Y283556D01*
X348000D01*
Y296252D02*
Y291174D01*
X345461Y288635D01*
X340383D01*
X337843Y291174D01*
Y296252D01*
X340383Y298791D01*
X342922D01*
Y288635D01*
X348000Y303870D02*
Y308948D01*
Y306409D01*
X332765D01*
Y303870D01*
X337843Y319105D02*
Y324183D01*
X340383Y326722D01*
X348000D01*
Y319105D01*
X345461Y316566D01*
X342922Y319105D01*
Y326722D01*
X348000Y331801D02*
X337843D01*
Y339418D01*
X340383Y341958D01*
X348000D01*
Y347036D02*
Y354653D01*
X345461Y357192D01*
X342922Y354653D01*
Y349575D01*
X340383Y347036D01*
X337843Y349575D01*
Y357192D01*
X348000Y364810D02*
Y369888D01*
X345461Y372428D01*
X340383D01*
X337843Y369888D01*
Y364810D01*
X340383Y362271D01*
X345461D01*
X348000Y364810D01*
Y377506D02*
X337843D01*
Y385123D01*
X340383Y387663D01*
X348000D01*
X332765Y392741D02*
Y402898D01*
Y397819D01*
X348000D01*
Y415594D02*
Y410515D01*
X345461Y407976D01*
X340383D01*
X337843Y410515D01*
Y415594D01*
X340383Y418133D01*
X342922D01*
Y407976D01*
X337843Y433368D02*
Y425750D01*
X340383Y423211D01*
X345461D01*
X348000Y425750D01*
Y433368D01*
X332765Y438446D02*
X348000D01*
X340383D01*
X337843Y440985D01*
Y446064D01*
X340383Y448603D01*
X348000D01*
X514265Y282556D02*
Y277478D01*
Y280017D01*
X526961D01*
X529500Y277478D01*
Y274939D01*
X526961Y272400D01*
X529500Y295252D02*
Y290174D01*
X526961Y287635D01*
X521883D01*
X519343Y290174D01*
Y295252D01*
X521883Y297791D01*
X524422D01*
Y287635D01*
X529500Y302870D02*
Y307948D01*
Y305409D01*
X514265D01*
Y302870D01*
X529500Y315566D02*
Y320644D01*
Y318105D01*
X514265D01*
Y315566D01*
X519343Y328261D02*
X526961D01*
X529500Y330801D01*
Y338418D01*
X532039D01*
X534579Y335879D01*
Y333340D01*
X529500Y338418D02*
X519343D01*
X535265Y277400D02*
X550500D01*
Y285017D01*
X547961Y287556D01*
X545422D01*
X542883Y285017D01*
Y277400D01*
Y285017D01*
X540343Y287556D01*
X537804D01*
X535265Y285017D01*
Y277400D01*
X550500Y300252D02*
Y295174D01*
X547961Y292635D01*
X542883D01*
X540343Y295174D01*
Y300252D01*
X542883Y302791D01*
X545422D01*
Y292635D01*
X540343Y310409D02*
Y315487D01*
X542883Y318027D01*
X550500D01*
Y310409D01*
X547961Y307870D01*
X545422Y310409D01*
Y318027D01*
X550500Y323105D02*
X540343D01*
Y330722D01*
X542883Y333262D01*
X550500D01*
X326500Y265900D02*
X576500D01*
Y545900D01*
X326500D02*
X576500D01*
X326500Y265900D02*
Y545900D01*
D11*
X413500Y274400D02*
Y284900D01*
Y274400D02*
X426000D01*
X438500D01*
Y284900D01*
M02*
